<?xml version="1.0" encoding="UTF-8"?>
<svg version="1.1" xmlns="http://www.w3.org/2000/svg" width="640" height="360">
<path d="M0 0 C211.2 0 422.4 0 640 0 C640 118.8 640 237.6 640 360 C428.8 360 217.6 360 0 360 C0 241.2 0 122.4 0 0 Z " fill="#EEF6FB" transform="translate(0,0)"/>
<path d="M0 0 C211.2 0 422.4 0 640 0 C640 40.59 640 81.18 640 123 C629.32129692 130.11913539 629.32129692 130.11913539 623.875 133.375 C623.23957275 133.7551123 622.60414551 134.13522461 621.94946289 134.52685547 C615.09117549 138.59171322 608.07899017 142.33673293 601 146 C599.90558594 146.57363281 598.81117188 147.14726562 597.68359375 147.73828125 C588.13334373 152.64307317 578.30077426 156.8120996 568.41064453 160.97607422 C566.34695883 161.85262859 564.29390355 162.74731804 562.24609375 163.66015625 C552.36648348 168.0342458 542.2242652 171.53350007 532 175 C530.91847656 175.36996094 529.83695313 175.73992187 528.72265625 176.12109375 C526.84717677 176.7550216 524.96814858 177.37853512 523.0859375 177.9921875 C520.83453565 178.72745545 518.59065691 179.48587631 516.3515625 180.2578125 C505.16417238 184.03094927 493.77486692 186.89417644 482.3125 189.6875 C481.52843781 189.87968109 480.74437561 190.07186218 479.93655396 190.26986694 C470.51644415 192.57060841 461.09078692 194.63031261 451.5480957 196.35424805 C447.76731433 197.0423487 444.00669847 197.80343067 440.24438477 198.5847168 C422.71066432 202.21615832 405.24618838 204.14954552 387.32421875 204.16796875 C385.5727227 204.17296135 385.5727227 204.17296135 383.7858429 204.17805481 C381.3278543 204.1830825 378.86985897 204.18546443 376.41186523 204.18530273 C372.7347424 204.18747213 369.05792869 204.20562618 365.38085938 204.22460938 C345.45225872 204.27377444 325.59699208 203.68741855 306.0625 199.4375 C303.94990839 198.99538961 301.83663599 198.55651833 299.72265625 198.12109375 C298.7495752 197.91983887 297.77649414 197.71858398 296.77392578 197.51123047 C294.19801421 197.03649373 291.6649302 196.71839501 289.05859375 196.47265625 C285.70082937 196.14795433 283.10613927 195.36428483 280 194 C277.4822764 193.31886339 274.97192879 192.67278609 272.4375 192.0625 C271.73367188 191.88920166 271.02984375 191.71590332 270.3046875 191.53735352 C267.06140242 190.73940826 263.8149918 189.95580009 260.56640625 189.1796875 C255.62207216 187.9829697 250.86102732 186.69972843 246.1328125 184.8203125 C240.60518335 182.69430129 234.92412544 180.94380994 229.2890625 179.125 C224.65349482 177.53943766 220.07931358 175.80289463 215.5 174.0625 C214.57574219 173.71509766 213.65148437 173.36769531 212.69921875 173.00976562 C207.99007437 171.2210992 203.48988293 169.29527647 199 167 C197.57488436 166.48516765 196.13757001 166.00216341 194.6875 165.5625 C190.79208383 164.30947446 187.12515294 162.78228311 183.40625 161.08203125 C180.85444828 159.93454898 178.27743142 158.87102534 175.6875 157.8125 C169.18397702 155.12426586 162.78146801 152.22262545 156.3815918 149.2980957 C150.65149937 146.69350824 144.86261525 144.29044865 139 142 C139 141.34 139 140.68 139 140 C138.12545166 139.88301758 137.25090332 139.76603516 136.34985352 139.64550781 C133.0502285 139.0096789 130.45321537 138.05731787 127.40234375 136.671875 C125.83782471 135.96998047 125.83782471 135.96998047 124.24169922 135.25390625 C123.15131348 134.75761719 122.06092773 134.26132813 120.9375 133.75 C113.17979653 130.27283261 105.45174951 126.88408383 97.48046875 123.92578125 C94.26787561 122.72675043 91.13590281 121.38563147 88 120 C88 119.34 88 118.68 88 118 C87.15566406 117.88914062 86.31132813 117.77828125 85.44140625 117.6640625 C81.70657931 116.9433808 78.47699649 115.76697864 74.9375 114.375 C51.83028477 105.50258652 28.04645179 98.80108954 4 93 C2.68 92.67 1.36 92.34 0 92 C0 61.64 0 31.28 0 0 Z " fill="#FEFEFE" transform="translate(0,0)"/>
<path d="M0 0 C0 47.85 0 95.7 0 145 C-5.94 146.98 -5.94 146.98 -12 149 C-13.485 149.99 -13.485 149.99 -15 151 C-17.79053741 151.72747207 -20.55904433 152.39114472 -23.375 153 C-29.03178523 154.19203798 -29.03178523 154.19203798 -34.50390625 156.0078125 C-38.09561599 157.43550307 -41.78098018 158.1141316 -45.5625 158.875 C-46.40039062 159.04572021 -47.23828125 159.21644043 -48.1015625 159.39233398 C-49.86313887 159.75085153 -51.62502651 160.10784276 -53.38720703 160.46337891 C-55.84548511 160.9682654 -58.29585967 161.50057393 -60.74609375 162.04296875 C-91.06258118 168.65210135 -121.13048942 168.37125915 -152 168 C-152 167.34 -152 166.68 -152 166 C-152.969375 166.02320313 -153.93875 166.04640625 -154.9375 166.0703125 C-164.79376446 166.22896464 -174.2552843 165.45134064 -184 164 C-184 163.34 -184 162.68 -184 162 C-185.04027344 162.05542969 -186.08054687 162.11085938 -187.15234375 162.16796875 C-193.43457697 162.16106671 -199.45495141 160.6588795 -205.5625 159.3125 C-206.81015137 159.04211914 -208.05780273 158.77173828 -209.34326172 158.49316406 C-217.09072889 156.77060718 -224.5360572 154.72998858 -231.9921875 152.03125 C-235.63531682 150.78217709 -239.25568942 150.00413445 -243.046875 149.359375 C-245 149 -245 149 -248 148 C-248 147.34 -248 146.68 -248 146 C-249.5778125 145.7834375 -249.5778125 145.7834375 -251.1875 145.5625 C-254.15460549 145.12473034 -257.06794366 144.62195134 -260 144 C-260 143.34 -260 142.68 -260 142 C-261.5778125 141.7834375 -261.5778125 141.7834375 -263.1875 141.5625 C-266.15460549 141.12473034 -269.06794366 140.62195134 -272 140 C-272 139.34 -272 138.68 -272 138 C-273.2684375 137.8453125 -273.2684375 137.8453125 -274.5625 137.6875 C-277.67385402 137.0652292 -280.23289058 136.11551819 -283.109375 134.80859375 C-285.06876143 133.9705917 -287.0291259 133.32387078 -289.0625 132.6875 C-298.51899203 129.61051537 -307.54999358 125.24168194 -316.578125 121.1015625 C-319.6979165 119.68256056 -322.84267431 118.33309307 -326 117 C-326 116.34 -326 115.68 -326 115 C-326.80050781 114.92136719 -327.60101563 114.84273438 -328.42578125 114.76171875 C-333.05915241 113.77427899 -336.94838293 111.88518146 -341.1875 109.8125 C-342.02885498 109.40757324 -342.87020996 109.00264648 -343.73706055 108.58544922 C-349.18230681 105.94485333 -354.54099185 103.17911672 -359.8203125 100.21875 C-362.50500803 98.71762992 -365.2346392 97.34531066 -368 96 C-368 95.01 -368 94.02 -368 93 C-367.37170792 92.95654953 -366.74341583 92.91309906 -366.09608459 92.86833191 C-329.09038544 90.35042559 -329.09038544 90.35042559 -292.125 87.3125 C-291.44349884 87.25210541 -290.76199768 87.19171082 -290.05984497 87.12948608 C-283.32941828 86.8555609 -283.32941828 86.8555609 -277 85 C-279.97 84.34 -282.94 83.68 -286 83 C-286 82.67 -286 82.34 -286 82 C-285.03739258 81.9906543 -284.07478516 81.98130859 -283.08300781 81.97167969 C-253.30070996 81.63574023 -223.51120358 80.19448525 -194.37890625 73.52978516 C-191.7906811 72.95338444 -189.19514875 72.43157121 -186.59375 71.91796875 C-164.9591723 67.62001173 -143.02287868 62.79061489 -122.11230469 55.70996094 C-119.53138779 54.84249604 -116.9415412 54.00407864 -114.3515625 53.1640625 C-99.36102288 48.27338855 -84.47223683 43.15886238 -70.18359375 36.44921875 C-67.44052635 35.20053408 -64.68524634 34.00701513 -61.91015625 32.83203125 C-60.98178955 32.43870605 -60.05342285 32.04538086 -59.09692383 31.64013672 C-57.24013925 30.85576824 -55.38196254 30.07468474 -53.5222168 29.29736328 C-48.44908651 27.15026055 -43.74203303 24.79884837 -39 22 C-37.72447152 21.32234433 -36.44429171 20.65338811 -35.16015625 19.9921875 C-25.68496591 15.10258393 -16.61311733 9.78758234 -7.63476562 4.04003906 C-1.28450704 0 -1.28450704 0 0 0 Z " fill="#DFEEF7" transform="translate(640,123)"/>
<path d="M0 0 C18.45232192 1.15327012 18.45232192 1.15327012 26.015625 2.12890625 C26.89447357 2.23874847 27.77332214 2.3485907 28.67880249 2.46176147 C31.53676862 2.82198205 34.39345279 3.1912042 37.25 3.5625 C38.25133972 3.69149689 39.25267944 3.82049377 40.28436279 3.95339966 C76.39668354 8.62247955 112.36788788 14.1549135 148.08862305 21.2331543 C152.18128225 22.03554132 156.27874985 22.8074338 160.37890625 23.5703125 C166.32703279 24.67904325 172.2647386 25.82498408 178.1875 27.0625 C178.97962891 27.22298828 179.77175781 27.38347656 180.58789062 27.54882812 C181.35681641 27.70931641 182.12574219 27.86980469 182.91796875 28.03515625 C183.58594482 28.1731665 184.2539209 28.31117676 184.94213867 28.45336914 C187 29 187 29 189.30615234 29.97558594 C192.57195215 31.21750147 195.73941147 31.76603479 199.18359375 32.35546875 C208.23833261 33.97055483 217.13679475 36.10472838 226.0625 38.3125 C227.70268919 38.71544972 229.34290764 39.11828034 230.9831543 39.52099609 C250.56963636 44.3411197 270.00865401 49.49666167 289.35205078 55.22021484 C293.06231845 56.31283838 296.77977992 57.37933452 300.5 58.4375 C301.5828125 58.74558594 302.665625 59.05367188 303.78125 59.37109375 C304.5134375 59.57863281 305.245625 59.78617187 306 60 C306 60.33 306 60.66 306 61 C205.02 61 104.04 61 0 61 C0 40.87 0 20.74 0 0 Z " fill="#FEFEFE" transform="translate(0,299)"/>
<path d="M0 0 C0 1.65 0 3.3 0 5 C-2.31 5.33 -4.62 5.66 -7 6 C-7.33 8.31 -7.66 10.62 -8 13 C-9.175625 12.9175 -10.35125 12.835 -11.5625 12.75 C-16.39608017 12.73279865 -19.0643017 14.2691073 -23 17 C-23.33 17.66 -23.66 18.32 -24 19 C-26.90259811 20.3749149 -28.76138705 21 -32 21 C-32 22.98 -32 24.96 -32 27 C-33.32 27 -34.64 27 -36 27 C-37.7511573 28.4166747 -37.7511573 28.4166747 -39 30 C-39.99 29.34 -40.98 28.68 -42 28 C-42.495 28.495 -42.495 28.495 -43 29 C-44.66617115 29.04063832 -46.33388095 29.042721 -48 29 C-48 30.65 -48 32.3 -48 34 C-48.721875 34.12375 -49.44375 34.2475 -50.1875 34.375 C-52.95721894 34.9904931 -55.3970354 35.88444374 -58 37 C-58.66 36.34 -59.32 35.68 -60 35 C-61.89606452 36.10376962 -63.79184154 37.20803313 -65.6875 38.3125 C-67.27111328 39.23482422 -67.27111328 39.23482422 -68.88671875 40.17578125 C-70.84812912 41.32506436 -72.79162683 42.50604716 -74.70703125 43.73046875 C-77 45 -77 45 -80 45 C-80.495 43.515 -80.495 43.515 -81 42 C-76.10345455 39.06973356 -71.24342048 36.765887 -65.9375 34.6875 C-52.81579409 29.40660489 -40.42768805 22.72270553 -28 16 C-27.20207031 15.57074219 -26.40414062 15.14148438 -25.58203125 14.69921875 C-19.50434723 11.38100852 -6.46186197 0 0 0 Z " fill="#BEDAEC" transform="translate(640,123)"/>
<path d="M0 0 C0.495 0.99 0.495 0.99 1 2 C0.67 2.66 0.34 3.32 0 4 C-2.31 4 -4.62 4 -7 4 C-7.33 4.66 -7.66 5.32 -8 6 C-8 5.34 -8 4.68 -8 4 C-9.13179688 4.23976562 -10.26359375 4.47953125 -11.4296875 4.7265625 C-12.9113366 5.02664333 -14.3931143 5.32608972 -15.875 5.625 C-16.62136719 5.78484375 -17.36773437 5.9446875 -18.13671875 6.109375 C-20.0758447 6.49370627 -22.03835574 6.75531287 -24 7 C-24.66 6.34 -25.32 5.68 -26 5 C-27.67760016 5.27303224 -29.34446744 5.61516129 -31 6 C-32.58335819 6.0188495 -34.16759052 5.99545449 -35.75 5.9375 C-40.91779887 5.88094406 -45.9386332 6.33345376 -51.0625 6.9375 C-51.81305664 7.02443115 -52.56361328 7.1113623 -53.33691406 7.20092773 C-57.29322459 7.64627448 -57.29322459 7.64627448 -61 9 C-62.54023996 9.06950541 -64.08334988 9.08452357 -65.625 9.0625 C-66.85089844 9.04896484 -66.85089844 9.04896484 -68.1015625 9.03515625 C-69.04128906 9.01775391 -69.04128906 9.01775391 -70 9 C-69.34 8.34 -68.68 7.68 -68 7 C-72.455 6.01 -72.455 6.01 -77 5 C-77 4.67 -77 4.34 -77 4 C-76.03739258 3.9906543 -75.07478516 3.98130859 -74.08300781 3.97167969 C-53.94789633 3.74531372 -34.12529315 2.82588407 -14.13964844 0.28417969 C-13.41067856 0.19296844 -12.68170868 0.1017572 -11.9306488 0.00778198 C-9.96679937 -0.24075667 -8.0044477 -0.50105077 -6.04223633 -0.76220703 C-3 -1 -3 -1 0 0 Z " fill="#BFE1F1" transform="translate(431,201)"/>
<path d="M0 0 C-2.80804268 2.96404505 -5.18315774 5.44499019 -9 7 C-9.66 6.34 -10.32 5.68 -11 5 C-11.680625 5.309375 -12.36125 5.61875 -13.0625 5.9375 C-16.36965912 7.13370649 -19.51545878 7.59005397 -23 8 C-23.66 9.65 -24.32 11.3 -25 13 C-25.99 12.67 -26.98 12.34 -28 12 C-30.6569191 12.87914688 -30.6569191 12.87914688 -33 14 C-33.66 13.34 -34.32 12.68 -35 12 C-35.4122583 12.48895752 -35.8245166 12.97791504 -36.24926758 13.48168945 C-38.37153625 15.32221224 -39.24935371 15.35527774 -42.01171875 15.29296875 C-42.76904297 15.28330078 -43.52636719 15.27363281 -44.30664062 15.26367188 C-45.48516602 15.2259668 -45.48516602 15.2259668 -46.6875 15.1875 C-47.88342773 15.16719727 -47.88342773 15.16719727 -49.10351562 15.14648438 C-51.06929967 15.11117089 -53.03473582 15.05736447 -55 15 C-51.89058657 12.92705771 -49.74919233 12.3062922 -46.14453125 11.44921875 C-44.97132324 11.1651416 -43.79811523 10.88106445 -42.58935547 10.58837891 C-40.71981201 10.14244385 -40.71981201 10.14244385 -38.8125 9.6875 C-26.78778705 6.75617871 -12.19744676 -0.26516189 0 0 Z " fill="#BEDDEF" transform="translate(528,177)"/>
<path d="M0 0 C1.32 0 2.64 0 4 0 C6 1 6 1 7.4375 2.5625 C9.01410534 4.33852827 9.01410534 4.33852827 12 4 C12 4.99 12 5.98 12 7 C3.88861071 6.63379732 -3.33035667 4.58459767 -11 2 C-7.24241258 -0.50505828 -4.31887011 -0.1492124 0 0 Z " fill="#CDE8F5" transform="translate(268,344)"/>
<path d="M0 0 C4.48945709 -0.08978914 8.58523205 0.23221427 13 1 C14.66627298 1.03622333 16.33405374 1.04899842 18 1 C17.01 1.495 17.01 1.495 16 2 C16 2.66 16 3.32 16 4 C18.97 4.33 21.94 4.66 25 5 C25 5.99 25 6.98 25 8 C16.3321012 6.63353125 8.25329756 3.88315195 0 1 C0 0.67 0 0.34 0 0 Z " fill="#CCE8F4" transform="translate(283,352)"/>
<path d="M0 0 C0.33 0.66 0.66 1.32 1 2 C0.67 2.66 0.34 3.32 0 4 C-7.26 4 -14.52 4 -22 4 C-22 3.67 -22 3.34 -22 3 C-7.40318907 -0.44419134 -7.40318907 -0.44419134 0 0 Z " fill="#BDDFEF" transform="translate(456,196)"/>
<path d="M0 0 C2.64 0.66 5.28 1.32 8 2 C8 2.99 8 3.98 8 5 C0.08 5 -7.84 5 -16 5 C-16 4.34 -16 3.68 -16 3 C-13.70839681 2.97307516 -11.41670454 2.95363876 -9.125 2.9375 C-7.84882813 2.92589844 -6.57265625 2.91429687 -5.2578125 2.90234375 C-2 3 -2 3 0 4 C0 2.68 0 1.36 0 0 Z " fill="#DAEDF9" transform="translate(176,217)"/>
<path d="M0 0 C-0.33 0.99 -0.66 1.98 -1 3 C-1.99 3.33 -2.98 3.66 -4 4 C-4.33 4.66 -4.66 5.32 -5 6 C-8.39050837 6.94180788 -11.50640281 7 -15 7 C-16.34332728 7.29044914 -17.68225804 7.60955794 -19 8 C-16.37070391 4.79789297 -13.3230404 3.74614015 -9.5 2.3125 C-8.3553125 1.87550781 -7.210625 1.43851563 -6.03125 0.98828125 C-3 0 -3 0 0 0 Z " fill="#BCDBED" transform="translate(552,168)"/>
<path d="M0 0 C6.75 0.75 6.75 0.75 9 3 C9 4.32 9 5.64 9 7 C7.02 7 5.04 7 3 7 C3 6.34 3 5.68 3 5 C2.01 5 1.02 5 0 5 C0 3.35 0 1.7 0 0 Z " fill="#D7EBF7" transform="translate(144,145)"/>
<path d="M0 0 C0.33 0.66 0.66 1.32 1 2 C0.67 2.66 0.34 3.32 0 4 C-1.45742463 4.08096803 -2.91612807 4.13917774 -4.375 4.1875 C-5.18710937 4.22230469 -5.99921875 4.25710937 -6.8359375 4.29296875 C-7.55007813 4.19628906 -8.26421875 4.09960938 -9 4 C-9.66 3.01 -10.32 2.02 -11 1 C-3.375 -1.125 -3.375 -1.125 0 0 Z " fill="#BDDFF0" transform="translate(471,193)"/>
<path d="M0 0 C3.96 0 7.92 0 12 0 C11.67 0.66 11.34 1.32 11 2 C8.67624308 2.39460023 6.3406065 2.72230092 4 3 C2.66082739 3.30903983 1.32346746 3.62942911 0 4 C0 2.68 0 1.36 0 0 Z " fill="#C4E3F1" transform="translate(328,203)"/>
<path d="M0 0 C4.19469571 0.59924224 8.00999834 1.57499941 12 3 C11.34 4.32 10.68 5.64 10 7 C7.53199953 5.84826645 5.95216435 4.95216435 4 3 C2.68252676 2.30251417 1.35085807 1.63040043 0 1 C0 0.67 0 0.34 0 0 Z " fill="#C9E7F5" transform="translate(246,185)"/>
<path d="M0 0 C-1.09758507 0.84198307 -2.20335317 1.67330671 -3.3125 2.5 C-3.92738281 2.9640625 -4.54226563 3.428125 -5.17578125 3.90625 C-7 5 -7 5 -10 5 C-10.33 4.01 -10.66 3.02 -11 2 C-9.73392393 1.46770674 -8.46189588 0.94955456 -7.1875 0.4375 C-6.47980469 0.14746094 -5.77210938 -0.14257812 -5.04296875 -0.44140625 C-3 -1 -3 -1 0 0 Z " fill="#B7D9EC" transform="translate(570,163)"/>
<path d="M0 0 C4.95 0.99 4.95 0.99 10 2 C9.67 3.32 9.34 4.64 9 6 C8.67 5.01 8.34 4.02 8 3 C6.02 3.66 4.04 4.32 2 5 C1.34 3.35 0.68 1.7 0 0 Z " fill="#CBE7F4" transform="translate(272,192)"/>
<path d="M0 0 C3.40219909 1.62840299 6.16821057 3.48285384 9 6 C9 6.66 9 7.32 9 8 C7.68 8 6.36 8 5 8 C3.515625 6.25 3.515625 6.25 2.25 4 C1.82203125 3.2575 1.3940625 2.515 0.953125 1.75 C0.63859375 1.1725 0.3240625 0.595 0 0 Z " fill="#CDE8F2" transform="translate(373,344)"/>
<path d="M0 0 C2.64 0.66 5.28 1.32 8 2 C8 2.66 8 3.32 8 4 C5.36 4 2.72 4 0 4 C0 2.68 0 1.36 0 0 Z " fill="#CDE5F5" transform="translate(176,217)"/>
<path d="M0 0 C2.97 0.33 5.94 0.66 9 1 C8.34 2.32 7.68 3.64 7 5 C6.01 4.67 5.02 4.34 4 4 C4 3.34 4 2.68 4 2 C2.68 1.67 1.36 1.34 0 1 C0 0.67 0 0.34 0 0 Z " fill="#C6E4F2" transform="translate(283,195)"/>
<path d="M0 0 C2.97 0.33 5.94 0.66 9 1 C9 1.99 9 2.98 9 4 C6.03 3.01 3.06 2.02 0 1 C0 0.67 0 0.34 0 0 Z " fill="#C6E3F1" transform="translate(299,356)"/>
<path d="M0 0 C2.64 0 5.28 0 8 0 C7.67 0.99 7.34 1.98 7 3 C4.69 2.67 2.38 2.34 0 2 C0 1.34 0 0.68 0 0 Z " fill="#D4EBF6" transform="translate(193,328)"/>
</svg>
